<svg width="98" height="84" viewBox="0 0 98 84" fill="none" xmlns="http://www.w3.org/2000/svg">
<path d="M36.9032 31.2558L38.3653 30.9207L38.0984 29.7558H36.9032V31.2558ZM43.0323 58L41.5702 58.3351L44.4934 58.3394L43.0323 58ZM54.6452 8L56.0906 7.59902L53.1841 7.66065L54.6452 8ZM61.0968 31.2558L59.6514 31.6568L59.9562 32.7558H61.0968V31.2558ZM66 31.2558C66 35.6741 69.5817 39.2558 74 39.2558C78.4183 39.2558 82 35.6741 82 31.2558C82 26.8375 78.4183 23.2558 74 23.2558C69.5817 23.2558 66 26.8375 66 31.2558ZM24 32.7558H36.9032V29.7558H24V32.7558ZM35.4411 31.5909L41.5702 58.3351L44.4944 57.6649L38.3653 30.9207L35.4411 31.5909ZM44.4934 58.3394L56.1063 8.33935L53.1841 7.66065L41.5711 57.6606L44.4934 58.3394ZM53.1998 8.40098L59.6514 31.6568L62.5422 30.8548L56.0906 7.59902L53.1998 8.40098ZM61.0968 32.7558H74V29.7558H61.0968V32.7558Z" fill="#606060"/>
<path d="M27.7 73L30.53 65.97H31.64L34.46 73H33.01L30.83 67.23H31.33L29.12 73H27.7ZM29.2 71.69V70.55H32.98V71.69H29.2ZM38.4784 73V70.23C38.4784 69.9433 38.3884 69.71 38.2084 69.53C38.0284 69.35 37.7951 69.26 37.5084 69.26C37.3218 69.26 37.1551 69.3 37.0084 69.38C36.8618 69.46 36.7451 69.5733 36.6584 69.72C36.5784 69.8667 36.5384 70.0367 36.5384 70.23L36.0284 69.97C36.0284 69.59 36.1084 69.26 36.2684 68.98C36.4351 68.6933 36.6618 68.47 36.9484 68.31C37.2418 68.15 37.5718 68.07 37.9384 68.07C38.2918 68.07 38.6084 68.16 38.8884 68.34C39.1684 68.5133 39.3884 68.7433 39.5484 69.03C39.7084 69.31 39.7884 69.6133 39.7884 69.94V73H38.4784ZM35.2284 73V68.17H36.5384V73H35.2284ZM42.8637 73.1C42.4237 73.1 42.027 72.99 41.6737 72.77C41.3203 72.55 41.0437 72.25 40.8437 71.87C40.6437 71.49 40.5437 71.0633 40.5437 70.59C40.5437 70.11 40.6437 69.68 40.8437 69.3C41.0437 68.92 41.3203 68.62 41.6737 68.4C42.027 68.18 42.4237 68.07 42.8637 68.07C43.2103 68.07 43.5203 68.14 43.7937 68.28C44.067 68.42 44.2837 68.6167 44.4437 68.87C44.6103 69.1167 44.7003 69.3967 44.7137 69.71V71.45C44.7003 71.77 44.6103 72.0533 44.4437 72.3C44.2837 72.5467 44.067 72.7433 43.7937 72.89C43.5203 73.03 43.2103 73.1 42.8637 73.1ZM43.1037 71.89C43.4703 71.89 43.767 71.77 43.9937 71.53C44.2203 71.2833 44.3337 70.9667 44.3337 70.58C44.3337 70.3267 44.2803 70.1033 44.1737 69.91C44.0737 69.71 43.9303 69.5567 43.7437 69.45C43.5637 69.3367 43.3503 69.28 43.1037 69.28C42.8637 69.28 42.6503 69.3367 42.4637 69.45C42.2837 69.5567 42.1403 69.71 42.0337 69.91C41.9337 70.1033 41.8837 70.3267 41.8837 70.58C41.8837 70.84 41.9337 71.07 42.0337 71.27C42.1403 71.4633 42.2837 71.6167 42.4637 71.73C42.6503 71.8367 42.8637 71.89 43.1037 71.89ZM44.2637 73V71.7L44.4737 70.52L44.2637 69.36V68.17H45.5637V73H44.2637ZM46.7226 73V65.77H48.0326V73H46.7226ZM50.7133 73.04L48.6933 68.17H50.1133L51.4533 71.89H50.9733L52.3633 68.17H53.7933L51.6433 73.03L50.7133 73.04ZM49.3733 75.02L50.8433 71.91L51.6433 73.03L50.7633 75.02H49.3733ZM55.0888 73V66.16H56.3988V73H55.0888ZM53.9588 69.32V68.17H57.5288V69.32H53.9588ZM58.2655 73V68.17H59.5855V73H58.2655ZM58.9255 67.39C58.7122 67.39 58.5355 67.32 58.3955 67.18C58.2555 67.0333 58.1855 66.8533 58.1855 66.64C58.1855 66.4333 58.2555 66.2567 58.3955 66.11C58.5355 65.9633 58.7122 65.89 58.9255 65.89C59.1455 65.89 59.3222 65.9633 59.4555 66.11C59.5955 66.2567 59.6655 66.4333 59.6655 66.64C59.6655 66.8533 59.5955 67.0333 59.4555 67.18C59.3222 67.32 59.1455 67.39 58.9255 67.39ZM63.026 73.1C62.5327 73.1 62.0893 72.99 61.696 72.77C61.3027 72.55 60.9927 72.25 60.766 71.87C60.5393 71.49 60.426 71.0633 60.426 70.59C60.426 70.11 60.5393 69.68 60.766 69.3C60.9927 68.92 61.3027 68.62 61.696 68.4C62.096 68.1733 62.5393 68.06 63.026 68.06C63.406 68.06 63.756 68.13 64.076 68.27C64.396 68.41 64.6727 68.61 64.906 68.87L64.066 69.72C63.9393 69.58 63.786 69.4733 63.606 69.4C63.4327 69.3267 63.2393 69.29 63.026 69.29C62.786 69.29 62.5693 69.3467 62.376 69.46C62.1893 69.5667 62.0393 69.7167 61.926 69.91C61.8193 70.0967 61.766 70.32 61.766 70.58C61.766 70.8333 61.8193 71.06 61.926 71.26C62.0393 71.4533 62.1893 71.6067 62.376 71.72C62.5693 71.8267 62.786 71.88 63.026 71.88C63.246 71.88 63.4427 71.8433 63.616 71.77C63.796 71.69 63.9493 71.5767 64.076 71.43L64.926 72.28C64.6793 72.5467 64.396 72.75 64.076 72.89C63.756 73.03 63.406 73.1 63.026 73.1ZM67.3279 73.11C67.0546 73.11 66.7846 73.0733 66.5179 73C66.2579 72.9267 66.0179 72.8267 65.7979 72.7C65.5779 72.5667 65.3879 72.4067 65.2279 72.22L66.0079 71.43C66.1746 71.6167 66.3679 71.7567 66.5879 71.85C66.8079 71.9433 67.0512 71.99 67.3179 71.99C67.5312 71.99 67.6912 71.96 67.7979 71.9C67.9112 71.84 67.9679 71.75 67.9679 71.63C67.9679 71.4967 67.9079 71.3933 67.7879 71.32C67.6746 71.2467 67.5246 71.1867 67.3379 71.14C67.1512 71.0867 66.9546 71.03 66.7479 70.97C66.5479 70.9033 66.3546 70.82 66.1679 70.72C65.9812 70.6133 65.8279 70.47 65.7079 70.29C65.5946 70.1033 65.5379 69.8633 65.5379 69.57C65.5379 69.2633 65.6112 68.9967 65.7579 68.77C65.9112 68.5433 66.1279 68.3667 66.4079 68.24C66.6879 68.1133 67.0179 68.05 67.3979 68.05C67.7979 68.05 68.1579 68.12 68.4779 68.26C68.8046 68.4 69.0746 68.61 69.2879 68.89L68.4979 69.68C68.3512 69.5 68.1846 69.37 67.9979 69.29C67.8179 69.21 67.6212 69.17 67.4079 69.17C67.2146 69.17 67.0646 69.2 66.9579 69.26C66.8579 69.32 66.8079 69.4033 66.8079 69.51C66.8079 69.63 66.8646 69.7233 66.9779 69.79C67.0979 69.8567 67.2512 69.9167 67.4379 69.97C67.6246 70.0167 67.8179 70.0733 68.0179 70.14C68.2246 70.2 68.4179 70.2867 68.5979 70.4C68.7846 70.5133 68.9346 70.6633 69.0479 70.85C69.1679 71.0367 69.2279 71.2767 69.2279 71.57C69.2279 72.0433 69.0579 72.42 68.7179 72.7C68.3779 72.9733 67.9146 73.11 67.3279 73.11Z" fill="#606060"/>
</svg>
