<svg width="98" height="84" viewBox="0 0 98 84" fill="none" xmlns="http://www.w3.org/2000/svg">
<path d="M49 50.1875C58.4924 50.1875 66.1875 42.4924 66.1875 33C66.1875 23.5076 58.4924 15.8125 49 15.8125C39.5076 15.8125 31.8125 23.5076 31.8125 33C31.8125 42.4924 39.5076 50.1875 49 50.1875Z" stroke="#606060" stroke-width="3" stroke-miterlimit="10"/>
<path d="M49 33L56.7344 25.2656" stroke="#606060" stroke-width="3" stroke-linecap="round" stroke-linejoin="round"/>
<path d="M44.3125 9.5625H53.6875" stroke="#606060" stroke-width="3" stroke-linecap="round" stroke-linejoin="round"/>
<path d="M32.68 73V65.94H34.25V73H32.68ZM37.05 73V65.94H38.63V73H37.05ZM33.62 70.05V68.69H37.57V70.05H33.62ZM39.8447 73V68.14H41.3747V73H39.8447ZM40.6147 67.47C40.3747 67.47 40.1747 67.39 40.0147 67.23C39.8614 67.0633 39.7847 66.8633 39.7847 66.63C39.7847 66.39 39.8614 66.19 40.0147 66.03C40.1747 65.87 40.3747 65.79 40.6147 65.79C40.8547 65.79 41.0514 65.87 41.2047 66.03C41.358 66.19 41.4347 66.39 41.4347 66.63C41.4347 66.8633 41.358 67.0633 41.2047 67.23C41.0514 67.39 40.8547 67.47 40.6147 67.47ZM44.2221 73.12C43.9354 73.12 43.6521 73.0833 43.3721 73.01C43.0988 72.9367 42.8421 72.8333 42.6021 72.7C42.3688 72.56 42.1688 72.4 42.0021 72.22L42.8721 71.34C43.0321 71.5133 43.2221 71.65 43.4421 71.75C43.6621 71.8433 43.9021 71.89 44.1621 71.89C44.3421 71.89 44.4788 71.8633 44.5721 71.81C44.6721 71.7567 44.7221 71.6833 44.7221 71.59C44.7221 71.47 44.6621 71.38 44.5421 71.32C44.4288 71.2533 44.2821 71.1967 44.1021 71.15C43.9221 71.0967 43.7321 71.04 43.5321 70.98C43.3321 70.92 43.1421 70.8367 42.9621 70.73C42.7821 70.6233 42.6354 70.4767 42.5221 70.29C42.4088 70.0967 42.3521 69.8533 42.3521 69.56C42.3521 69.2467 42.4321 68.9767 42.5921 68.75C42.7521 68.5167 42.9788 68.3333 43.2721 68.2C43.5654 68.0667 43.9088 68 44.3021 68C44.7154 68 45.0954 68.0733 45.4421 68.22C45.7954 68.36 46.0821 68.57 46.3021 68.85L45.4321 69.73C45.2788 69.55 45.1054 69.4233 44.9121 69.35C44.7254 69.2767 44.5421 69.24 44.3621 69.24C44.1888 69.24 44.0588 69.2667 43.9721 69.32C43.8854 69.3667 43.8421 69.4367 43.8421 69.53C43.8421 69.63 43.8988 69.71 44.0121 69.77C44.1254 69.83 44.2721 69.8833 44.4521 69.93C44.6321 69.9767 44.8221 70.0333 45.0221 70.1C45.2221 70.1667 45.4121 70.2567 45.5921 70.37C45.7721 70.4833 45.9188 70.6367 46.0321 70.83C46.1454 71.0167 46.2021 71.2633 46.2021 71.57C46.2021 72.0433 46.0221 72.42 45.6621 72.7C45.3088 72.98 44.8288 73.12 44.2221 73.12ZM47.7222 73V66.13H49.2522V73H47.7222ZM46.6222 69.44V68.14H50.3522V69.44H46.6222ZM53.2687 73.11C52.7687 73.11 52.3153 73 51.9087 72.78C51.5087 72.5533 51.192 72.2467 50.9587 71.86C50.7253 71.4733 50.6087 71.04 50.6087 70.56C50.6087 70.08 50.7253 69.65 50.9587 69.27C51.192 68.89 51.5087 68.59 51.9087 68.37C52.3087 68.1433 52.762 68.03 53.2687 68.03C53.7753 68.03 54.2287 68.14 54.6287 68.36C55.0287 68.58 55.3453 68.8833 55.5787 69.27C55.812 69.65 55.9287 70.08 55.9287 70.56C55.9287 71.04 55.812 71.4733 55.5787 71.86C55.3453 72.2467 55.0287 72.5533 54.6287 72.78C54.2287 73 53.7753 73.11 53.2687 73.11ZM53.2687 71.72C53.4887 71.72 53.682 71.6733 53.8487 71.58C54.0153 71.48 54.142 71.3433 54.2287 71.17C54.322 70.99 54.3687 70.7867 54.3687 70.56C54.3687 70.3333 54.322 70.1367 54.2287 69.97C54.1353 69.7967 54.0053 69.6633 53.8387 69.57C53.6787 69.47 53.4887 69.42 53.2687 69.42C53.0553 69.42 52.8653 69.47 52.6987 69.57C52.532 69.6633 52.402 69.7967 52.3087 69.97C52.2153 70.1433 52.1687 70.3433 52.1687 70.57C52.1687 70.79 52.2153 70.99 52.3087 71.17C52.402 71.3433 52.532 71.48 52.6987 71.58C52.8653 71.6733 53.0553 71.72 53.2687 71.72ZM56.6904 73V68.14H58.2204V73H56.6904ZM58.2204 70.33L57.5804 69.83C57.7071 69.2633 57.9204 68.8233 58.2204 68.51C58.5204 68.1967 58.9371 68.04 59.4704 68.04C59.7037 68.04 59.9071 68.0767 60.0804 68.15C60.2604 68.2167 60.4171 68.3233 60.5504 68.47L59.6404 69.62C59.5737 69.5467 59.4904 69.49 59.3904 69.45C59.2904 69.41 59.1771 69.39 59.0504 69.39C58.7971 69.39 58.5937 69.47 58.4404 69.63C58.2937 69.7833 58.2204 70.0167 58.2204 70.33ZM62.4189 73.02L60.4189 68.14H62.0689L63.3389 72.01H62.7289L64.0289 68.14H65.6789L63.5989 73.02H62.4189ZM61.1689 75.05L62.6289 71.9L63.5989 73.02L62.7389 75.05H61.1689Z" fill="#606060"/>
</svg>
