<svg width="98" height="84" viewBox="0 0 98 84" fill="none" xmlns="http://www.w3.org/2000/svg">
<path d="M49 39.25H42.75V33L61.5 14.25L67.75 20.5L49 39.25Z" stroke="#606060" stroke-width="3" stroke-linecap="round" stroke-linejoin="round"/>
<path d="M56.8125 18.9375L63.0625 25.1875" stroke="#606060" stroke-width="3" stroke-linecap="round" stroke-linejoin="round"/>
<path d="M66.1875 31.4375V48.625C66.1875 49.0394 66.0229 49.4368 65.7299 49.7299C65.4368 50.0229 65.0394 50.1875 64.625 50.1875H33.375C32.9606 50.1875 32.5632 50.0229 32.2701 49.7299C31.9771 49.4368 31.8125 49.0394 31.8125 48.625V17.375C31.8125 16.9606 31.9771 16.5632 32.2701 16.2701C32.5632 15.9771 32.9606 15.8125 33.375 15.8125H50.5625" stroke="#606060" stroke-width="3" stroke-linecap="round" stroke-linejoin="round"/>
<path d="M27.18 73V65.94H28.75V73H27.18ZM33.1797 73V70.23C33.1797 69.9767 33.0997 69.7733 32.9397 69.62C32.7864 69.46 32.5897 69.38 32.3497 69.38C32.183 69.38 32.0364 69.4167 31.9097 69.49C31.783 69.5567 31.683 69.6567 31.6097 69.79C31.5364 69.9167 31.4997 70.0633 31.4997 70.23L30.9097 69.94C30.9097 69.56 30.993 69.2267 31.1597 68.94C31.3264 68.6533 31.5564 68.4333 31.8497 68.28C32.1497 68.12 32.4864 68.04 32.8597 68.04C33.2197 68.04 33.5364 68.1267 33.8097 68.3C34.0897 68.4667 34.3097 68.69 34.4697 68.97C34.6297 69.25 34.7097 69.5567 34.7097 69.89V73H33.1797ZM29.9697 73V68.14H31.4997V73H29.9697ZM37.2223 73L35.1623 68.14H36.8123L38.2123 72.19H37.4923L38.8923 68.14H40.5123L38.4523 72.99L37.2223 73ZM43.3267 73.11C42.8001 73.11 42.3301 73.0033 41.9167 72.79C41.5101 72.57 41.1901 72.2667 40.9567 71.88C40.7234 71.4933 40.6067 71.0567 40.6067 70.57C40.6067 70.0833 40.7201 69.65 40.9467 69.27C41.1801 68.8833 41.4934 68.58 41.8867 68.36C42.2801 68.14 42.7234 68.03 43.2167 68.03C43.6967 68.03 44.1201 68.1333 44.4867 68.34C44.8534 68.5467 45.1401 68.8333 45.3467 69.2C45.5601 69.5667 45.6667 69.9867 45.6667 70.46C45.6667 70.5467 45.6601 70.64 45.6467 70.74C45.6401 70.8333 45.6234 70.9433 45.5967 71.07L41.4067 71.08V70.03L44.9467 70.02L44.2867 70.46C44.2801 70.18 44.2367 69.95 44.1567 69.77C44.0767 69.5833 43.9567 69.4433 43.7967 69.35C43.6434 69.25 43.4534 69.2 43.2267 69.2C42.9867 69.2 42.7767 69.2567 42.5967 69.37C42.4234 69.4767 42.2867 69.63 42.1867 69.83C42.0934 70.03 42.0467 70.2733 42.0467 70.56C42.0467 70.8467 42.0967 71.0933 42.1967 71.3C42.3034 71.5 42.4501 71.6567 42.6367 71.77C42.8301 71.8767 43.0567 71.93 43.3167 71.93C43.5567 71.93 43.7734 71.89 43.9667 71.81C44.1601 71.7233 44.3301 71.5967 44.4767 71.43L45.3167 72.27C45.0767 72.55 44.7867 72.76 44.4467 72.9C44.1067 73.04 43.7334 73.11 43.3267 73.11ZM49.6152 73V70.23C49.6152 69.9767 49.5352 69.7733 49.3752 69.62C49.2219 69.46 49.0252 69.38 48.7852 69.38C48.6186 69.38 48.4719 69.4167 48.3452 69.49C48.2186 69.5567 48.1186 69.6567 48.0452 69.79C47.9719 69.9167 47.9352 70.0633 47.9352 70.23L47.3452 69.94C47.3452 69.56 47.4286 69.2267 47.5952 68.94C47.7619 68.6533 47.9919 68.4333 48.2852 68.28C48.5852 68.12 48.9219 68.04 49.2952 68.04C49.6552 68.04 49.9719 68.1267 50.2452 68.3C50.5252 68.4667 50.7452 68.69 50.9052 68.97C51.0652 69.25 51.1452 69.5567 51.1452 69.89V73H49.6152ZM46.4052 73V68.14H47.9352V73H46.4052ZM52.7593 73V66.13H54.2893V73H52.7593ZM51.6593 69.44V68.14H55.3893V69.44H51.6593ZM58.3058 73.11C57.8058 73.11 57.3524 73 56.9458 72.78C56.5458 72.5533 56.2291 72.2467 55.9958 71.86C55.7624 71.4733 55.6458 71.04 55.6458 70.56C55.6458 70.08 55.7624 69.65 55.9958 69.27C56.2291 68.89 56.5458 68.59 56.9458 68.37C57.3458 68.1433 57.7991 68.03 58.3058 68.03C58.8124 68.03 59.2658 68.14 59.6658 68.36C60.0658 68.58 60.3824 68.8833 60.6158 69.27C60.8491 69.65 60.9658 70.08 60.9658 70.56C60.9658 71.04 60.8491 71.4733 60.6158 71.86C60.3824 72.2467 60.0658 72.5533 59.6658 72.78C59.2658 73 58.8124 73.11 58.3058 73.11ZM58.3058 71.72C58.5258 71.72 58.7191 71.6733 58.8858 71.58C59.0524 71.48 59.1791 71.3433 59.2658 71.17C59.3591 70.99 59.4058 70.7867 59.4058 70.56C59.4058 70.3333 59.3591 70.1367 59.2658 69.97C59.1724 69.7967 59.0424 69.6633 58.8758 69.57C58.7158 69.47 58.5258 69.42 58.3058 69.42C58.0924 69.42 57.9024 69.47 57.7358 69.57C57.5691 69.6633 57.4391 69.7967 57.3458 69.97C57.2524 70.1433 57.2058 70.3433 57.2058 70.57C57.2058 70.79 57.2524 70.99 57.3458 71.17C57.4391 71.3433 57.5691 71.48 57.7358 71.58C57.9024 71.6733 58.0924 71.72 58.3058 71.72ZM61.7275 73V68.14H63.2575V73H61.7275ZM63.2575 70.33L62.6175 69.83C62.7442 69.2633 62.9575 68.8233 63.2575 68.51C63.5575 68.1967 63.9742 68.04 64.5075 68.04C64.7408 68.04 64.9442 68.0767 65.1175 68.15C65.2975 68.2167 65.4542 68.3233 65.5875 68.47L64.6775 69.62C64.6108 69.5467 64.5275 69.49 64.4275 69.45C64.3275 69.41 64.2142 69.39 64.0875 69.39C63.8342 69.39 63.6308 69.47 63.4775 69.63C63.3308 69.7833 63.2575 70.0167 63.2575 70.33ZM67.456 73.02L65.456 68.14H67.106L68.376 72.01H67.766L69.066 68.14H70.716L68.636 73.02H67.456ZM66.206 75.05L67.666 71.9L68.636 73.02L67.776 75.05H66.206Z" fill="#606060"/>
</svg>
