<svg width="98" height="84" viewBox="0 0 98 84" fill="none" xmlns="http://www.w3.org/2000/svg">
<path d="M37.2812 50.1875C40.3016 50.1875 42.75 47.7391 42.75 44.7188C42.75 41.6984 40.3016 39.25 37.2812 39.25C34.2609 39.25 31.8125 41.6984 31.8125 44.7188C31.8125 47.7391 34.2609 50.1875 37.2812 50.1875Z" stroke="#606060" stroke-width="3" stroke-linecap="round" stroke-linejoin="round"/>
<path d="M37.2812 26.75C40.3016 26.75 42.75 24.3016 42.75 21.2812C42.75 18.2609 40.3016 15.8125 37.2812 15.8125C34.2609 15.8125 31.8125 18.2609 31.8125 21.2812C31.8125 24.3016 34.2609 26.75 37.2812 26.75Z" stroke="#606060" stroke-width="3" stroke-linecap="round" stroke-linejoin="round"/>
<path d="M37.2812 26.75V39.25" stroke="#606060" stroke-width="3" stroke-linecap="round" stroke-linejoin="round"/>
<path d="M60.7188 50.1875C63.7391 50.1875 66.1875 47.7391 66.1875 44.7188C66.1875 41.6984 63.7391 39.25 60.7188 39.25C57.6984 39.25 55.25 41.6984 55.25 44.7188C55.25 47.7391 57.6984 50.1875 60.7188 50.1875Z" stroke="#606060" stroke-width="3" stroke-linecap="round" stroke-linejoin="round"/>
<path d="M60.7188 39.25V31.418C60.7154 28.9273 59.7251 26.5394 57.9648 24.7773L50.5625 17.375" stroke="#606060" stroke-width="3" stroke-linecap="round" stroke-linejoin="round"/>
<path d="M50.5625 25.1875V17.375H58.375" stroke="#606060" stroke-width="3" stroke-linecap="round" stroke-linejoin="round"/>
<path d="M33.88 70.43V69.21H35.4C35.5933 69.21 35.77 69.17 35.93 69.09C36.09 69.01 36.2167 68.8933 36.31 68.74C36.4033 68.5867 36.45 68.4 36.45 68.18C36.45 67.9667 36.4033 67.7833 36.31 67.63C36.2167 67.4767 36.09 67.36 35.93 67.28C35.77 67.2 35.5933 67.16 35.4 67.16H33.88V65.94H35.63C36.0767 65.94 36.48 66.03 36.84 66.21C37.2 66.39 37.4833 66.65 37.69 66.99C37.9033 67.3233 38.01 67.72 38.01 68.18C38.01 68.64 37.9033 69.04 37.69 69.38C37.4833 69.7133 37.2 69.9733 36.84 70.16C36.48 70.34 36.0767 70.43 35.63 70.43H33.88ZM32.68 73V65.94H34.25V73H32.68ZM40.9793 73.11C40.5326 73.11 40.136 73.02 39.7893 72.84C39.4493 72.6533 39.1826 72.4 38.9893 72.08C38.796 71.7533 38.6993 71.38 38.6993 70.96V68.14H40.2293V70.94C40.2293 71.1067 40.256 71.25 40.3093 71.37C40.3693 71.49 40.456 71.5833 40.5693 71.65C40.6826 71.7167 40.8193 71.75 40.9793 71.75C41.206 71.75 41.386 71.68 41.5193 71.54C41.6526 71.3933 41.7193 71.1933 41.7193 70.94V68.14H43.2493V70.95C43.2493 71.3767 43.1526 71.7533 42.9593 72.08C42.766 72.4 42.4993 72.6533 42.1593 72.84C41.8193 73.02 41.426 73.11 40.9793 73.11ZM44.2099 73V65.74H45.7399V73H44.2099ZM46.8173 73V65.74H48.3473V73H46.8173ZM53.6691 73.11C53.1691 73.11 52.7157 73 52.3091 72.78C51.9091 72.5533 51.5924 72.2467 51.3591 71.86C51.1257 71.4733 51.0091 71.04 51.0091 70.56C51.0091 70.08 51.1257 69.65 51.3591 69.27C51.5924 68.89 51.9091 68.59 52.3091 68.37C52.7091 68.1433 53.1624 68.03 53.6691 68.03C54.1757 68.03 54.6291 68.14 55.0291 68.36C55.4291 68.58 55.7457 68.8833 55.9791 69.27C56.2124 69.65 56.3291 70.08 56.3291 70.56C56.3291 71.04 56.2124 71.4733 55.9791 71.86C55.7457 72.2467 55.4291 72.5533 55.0291 72.78C54.6291 73 54.1757 73.11 53.6691 73.11ZM53.6691 71.72C53.8891 71.72 54.0824 71.6733 54.2491 71.58C54.4157 71.48 54.5424 71.3433 54.6291 71.17C54.7224 70.99 54.7691 70.7867 54.7691 70.56C54.7691 70.3333 54.7224 70.1367 54.6291 69.97C54.5357 69.7967 54.4057 69.6633 54.2391 69.57C54.0791 69.47 53.8891 69.42 53.6691 69.42C53.4557 69.42 53.2657 69.47 53.0991 69.57C52.9324 69.6633 52.8024 69.7967 52.7091 69.97C52.6157 70.1433 52.5691 70.3433 52.5691 70.57C52.5691 70.79 52.6157 70.99 52.7091 71.17C52.8024 71.3433 52.9324 71.48 53.0991 71.58C53.2657 71.6733 53.4557 71.72 53.6691 71.72ZM59.2508 73.11C58.8041 73.11 58.4074 73.02 58.0608 72.84C57.7208 72.6533 57.4541 72.4 57.2608 72.08C57.0674 71.7533 56.9708 71.38 56.9708 70.96V68.14H58.5008V70.94C58.5008 71.1067 58.5274 71.25 58.5808 71.37C58.6408 71.49 58.7274 71.5833 58.8408 71.65C58.9541 71.7167 59.0908 71.75 59.2508 71.75C59.4774 71.75 59.6574 71.68 59.7908 71.54C59.9241 71.3933 59.9908 71.1933 59.9908 70.94V68.14H61.5208V70.95C61.5208 71.3767 61.4241 71.7533 61.2308 72.08C61.0374 72.4 60.7708 72.6533 60.4308 72.84C60.0908 73.02 59.6974 73.11 59.2508 73.11ZM63.1714 73V66.13H64.7014V73H63.1714ZM62.0714 69.44V68.14H65.8014V69.44H62.0714Z" fill="#606060"/>
</svg>
