<svg width="98" height="84" viewBox="0 0 98 84" fill="none" xmlns="http://www.w3.org/2000/svg">
<path d="M44.3125 43.4167L42.75 49.6667L40.6667 51.75H57.3333L55.25 49.6667L53.6875 43.4167M30.25 35.0833H67.75M34.4167 43.4167H63.5833C65.8845 43.4167 67.75 41.5512 67.75 39.25V18.4167C67.75 16.1155 65.8845 14.25 63.5833 14.25H34.4167C32.1155 14.25 30.25 16.1155 30.25 18.4167V39.25C30.25 41.5512 32.1155 43.4167 34.4167 43.4167Z" stroke="#606060" stroke-width="3" stroke-linecap="round" stroke-linejoin="round"/>
<path d="M30.94 73L28.67 65.94H30.23L31.89 71.37H31.28L32.9 65.94H34.13L35.75 71.37H35.15L36.8 65.94H38.35L36.08 73H34.85L33.22 67.57H33.8L32.17 73H30.94ZM40.8345 73.11C40.3079 73.11 39.8379 73.0033 39.4245 72.79C39.0179 72.57 38.6979 72.2667 38.4645 71.88C38.2312 71.4933 38.1145 71.0567 38.1145 70.57C38.1145 70.0833 38.2279 69.65 38.4545 69.27C38.6879 68.8833 39.0012 68.58 39.3945 68.36C39.7879 68.14 40.2312 68.03 40.7245 68.03C41.2045 68.03 41.6279 68.1333 41.9945 68.34C42.3612 68.5467 42.6479 68.8333 42.8545 69.2C43.0679 69.5667 43.1745 69.9867 43.1745 70.46C43.1745 70.5467 43.1679 70.64 43.1545 70.74C43.1479 70.8333 43.1312 70.9433 43.1045 71.07L38.9145 71.08V70.03L42.4545 70.02L41.7945 70.46C41.7879 70.18 41.7445 69.95 41.6645 69.77C41.5845 69.5833 41.4645 69.4433 41.3045 69.35C41.1512 69.25 40.9612 69.2 40.7345 69.2C40.4945 69.2 40.2845 69.2567 40.1045 69.37C39.9312 69.4767 39.7945 69.63 39.6945 69.83C39.6012 70.03 39.5545 70.2733 39.5545 70.56C39.5545 70.8467 39.6045 71.0933 39.7045 71.3C39.8112 71.5 39.9579 71.6567 40.1445 71.77C40.3379 71.8767 40.5645 71.93 40.8245 71.93C41.0645 71.93 41.2812 71.89 41.4745 71.81C41.6679 71.7233 41.8379 71.5967 41.9845 71.43L42.8245 72.27C42.5845 72.55 42.2945 72.76 41.9545 72.9C41.6145 73.04 41.2412 73.11 40.8345 73.11ZM46.713 73.1C46.3864 73.1 46.0864 73.0333 45.813 72.9C45.5397 72.76 45.3164 72.5767 45.143 72.35C44.9697 72.1167 44.8697 71.8567 44.843 71.57V69.52C44.8697 69.2333 44.9697 68.98 45.143 68.76C45.3164 68.5333 45.5397 68.3567 45.813 68.23C46.0864 68.1033 46.3864 68.04 46.713 68.04C47.173 68.04 47.5797 68.15 47.933 68.37C48.293 68.59 48.573 68.89 48.773 69.27C48.9797 69.65 49.083 70.0833 49.083 70.57C49.083 71.0567 48.9797 71.49 48.773 71.87C48.573 72.25 48.293 72.55 47.933 72.77C47.5797 72.99 47.173 73.1 46.713 73.1ZM46.443 71.72C46.6564 71.72 46.843 71.67 47.003 71.57C47.1697 71.47 47.2997 71.3333 47.393 71.16C47.4864 70.9867 47.533 70.79 47.533 70.57C47.533 70.3433 47.4864 70.1433 47.393 69.97C47.2997 69.7967 47.1697 69.6633 47.003 69.57C46.843 69.47 46.6564 69.42 46.443 69.42C46.2297 69.42 46.0397 69.47 45.873 69.57C45.7064 69.6633 45.5764 69.7967 45.483 69.97C45.3964 70.1433 45.353 70.3433 45.353 70.57C45.353 70.7967 45.3997 70.9967 45.493 71.17C45.5864 71.3433 45.713 71.48 45.873 71.58C46.0397 71.6733 46.2297 71.72 46.443 71.72ZM43.913 73V65.74H45.443V69.33L45.193 70.51L45.423 71.69V73H43.913ZM51.2003 70.43V69.21H52.7203C52.9136 69.21 53.0903 69.17 53.2503 69.09C53.4103 69.01 53.537 68.8933 53.6303 68.74C53.7236 68.5867 53.7703 68.4 53.7703 68.18C53.7703 67.9667 53.7236 67.7833 53.6303 67.63C53.537 67.4767 53.4103 67.36 53.2503 67.28C53.0903 67.2 52.9136 67.16 52.7203 67.16H51.2003V65.94H52.9503C53.397 65.94 53.8003 66.03 54.1603 66.21C54.5203 66.39 54.8036 66.65 55.0103 66.99C55.2236 67.3233 55.3303 67.72 55.3303 68.18C55.3303 68.64 55.2236 69.04 55.0103 69.38C54.8036 69.7133 54.5203 69.9733 54.1603 70.16C53.8003 70.34 53.397 70.43 52.9503 70.43H51.2003ZM50.0003 73V65.94H51.5703V73H50.0003ZM59.6496 73.12C59.1163 73.12 58.6229 73.0267 58.1696 72.84C57.7229 72.6533 57.3296 72.3933 56.9896 72.06C56.6496 71.7267 56.3863 71.34 56.1996 70.9C56.0129 70.4533 55.9196 69.9733 55.9196 69.46C55.9196 68.94 56.0129 68.46 56.1996 68.02C56.3863 67.58 56.6463 67.1967 56.9796 66.87C57.3129 66.5367 57.7029 66.28 58.1496 66.1C58.6029 65.9133 59.0963 65.82 59.6296 65.82C60.1563 65.82 60.6429 65.9133 61.0896 66.1C61.5429 66.28 61.9363 66.5367 62.2696 66.87C62.6096 67.1967 62.8729 67.5833 63.0596 68.03C63.2463 68.47 63.3396 68.95 63.3396 69.47C63.3396 69.9833 63.2463 70.4633 63.0596 70.91C62.8729 71.35 62.6129 71.7367 62.2796 72.07C61.9463 72.3967 61.5529 72.6533 61.0996 72.84C60.6529 73.0267 60.1696 73.12 59.6496 73.12ZM59.6296 71.69C60.0496 71.69 60.4163 71.5967 60.7296 71.41C61.0496 71.2233 61.2963 70.9633 61.4696 70.63C61.6429 70.29 61.7296 69.9 61.7296 69.46C61.7296 69.1267 61.6796 68.8267 61.5796 68.56C61.4796 68.2867 61.3363 68.0533 61.1496 67.86C60.9629 67.66 60.7396 67.51 60.4796 67.41C60.2263 67.3033 59.9429 67.25 59.6296 67.25C59.2096 67.25 58.8396 67.3433 58.5196 67.53C58.2063 67.71 57.9629 67.9667 57.7896 68.3C57.6163 68.6267 57.5296 69.0133 57.5296 69.46C57.5296 69.7933 57.5796 70.0967 57.6796 70.37C57.7796 70.6433 57.9196 70.88 58.0996 71.08C58.2863 71.2733 58.5096 71.4233 58.7696 71.53C59.0296 71.6367 59.3163 71.69 59.6296 71.69ZM66.2902 73.11C65.7102 73.11 65.2102 73.0167 64.7902 72.83C64.3769 72.6367 63.9969 72.3467 63.6502 71.96L64.6702 70.95C64.8969 71.21 65.1469 71.4133 65.4202 71.56C65.7002 71.7 66.0236 71.77 66.3902 71.77C66.7236 71.77 66.9802 71.71 67.1602 71.59C67.3469 71.47 67.4402 71.3033 67.4402 71.09C67.4402 70.8967 67.3802 70.74 67.2602 70.62C67.1402 70.5 66.9802 70.3967 66.7802 70.31C66.5869 70.2233 66.3702 70.14 66.1302 70.06C65.8969 69.98 65.6636 69.89 65.4302 69.79C65.1969 69.6833 64.9802 69.5533 64.7802 69.4C64.5869 69.24 64.4302 69.0433 64.3102 68.81C64.1902 68.57 64.1302 68.27 64.1302 67.91C64.1302 67.4767 64.2336 67.1033 64.4402 66.79C64.6536 66.4767 64.9469 66.24 65.3202 66.08C65.6936 65.9133 66.1236 65.83 66.6102 65.83C67.1036 65.83 67.5536 65.9167 67.9602 66.09C68.3736 66.2633 68.7136 66.5 68.9802 66.8L67.9602 67.81C67.7469 67.59 67.5302 67.4267 67.3102 67.32C67.0969 67.2133 66.8536 67.16 66.5802 67.16C66.3069 67.16 66.0902 67.2133 65.9302 67.32C65.7702 67.42 65.6902 67.5667 65.6902 67.76C65.6902 67.94 65.7502 68.0867 65.8702 68.2C65.9902 68.3067 66.1469 68.4 66.3402 68.48C66.5402 68.56 66.7569 68.64 66.9902 68.72C67.2302 68.8 67.4669 68.8933 67.7002 69C67.9336 69.1067 68.1469 69.2433 68.3402 69.41C68.5402 69.57 68.7002 69.7767 68.8202 70.03C68.9402 70.2767 69.0002 70.5833 69.0002 70.95C69.0002 71.6233 68.7602 72.1533 68.2802 72.54C67.8002 72.92 67.1369 73.11 66.2902 73.11Z" fill="#606060"/>
</svg>
